<svg width="57" height="60" viewBox="0 0 57 60" fill="none" xmlns="http://www.w3.org/2000/svg">
<path d="M22.1113 35.4287C23.1613 37.2287 25.4412 38.7887 28.5913 38.7887C32.6713 38.7887 34.9813 36.3587 34.9813 33.1187C34.9813 29.6987 32.0713 28.2287 30.4213 28.0787C31.9813 27.8087 34.6813 26.5787 34.6813 23.3387C34.6813 19.9487 31.7113 18.1187 28.5913 18.1187C25.8313 18.1187 23.7013 19.4387 22.3813 21.1187L23.1313 21.7187C24.6313 19.9487 26.1913 19.0187 28.5913 19.0187C31.3213 19.0187 33.7213 20.5787 33.7213 23.3387C33.7213 26.3687 31.0213 27.6287 28.2313 27.6287C27.3913 27.6287 26.8513 27.6287 26.5513 27.5987V28.5587C26.8513 28.5287 27.4213 28.5287 28.2313 28.5287C31.2913 28.5287 34.0213 29.8487 34.0213 33.1187C34.0213 36.0887 31.8913 37.8887 28.5913 37.8887C25.8613 37.8887 23.9713 36.5987 22.9513 34.9487L22.1113 35.4287Z" fill="#A0A0AA"/>
<circle cx="28.5" cy="28.4287" r="27.5" stroke="#A0A0AA"/>
</svg>
