<svg width="56" height="59" viewBox="0 0 56 59" fill="none" xmlns="http://www.w3.org/2000/svg">
<path d="M21.3167 35C22.6067 37.04 24.4967 38.36 27.7967 38.36C31.1267 38.36 34.1567 35.96 34.1567 32.06C34.1567 27.86 31.1267 25.7 27.7967 25.7C25.6367 25.7 23.8967 26.66 22.9067 27.62V18.89H32.8667V17.99H21.9467V28.19L22.7567 28.67C24.2867 27.23 25.9367 26.6 27.7967 26.6C30.8567 26.6 33.1967 28.67 33.1967 32.06C33.1967 35.15 30.8567 37.46 27.7967 37.46C25.0667 37.46 23.3867 36.38 22.0967 34.43L21.3167 35Z" fill="#A0A0AA"/>
<circle cx="28" cy="28" r="27.5" stroke="#A0A0AA"/>
</svg>
