<svg width="192" height="192" viewBox="0 0 192 192" fill="none" xmlns="http://www.w3.org/2000/svg">
<path d="M103.175 136H95.879V60.608L82.183 75.2L77.703 70.464L96.519 50.624H103.175V136ZM167.254 133.568C163.073 136.213 158.251 137.536 152.79 137.536C147.329 137.536 142.465 136.213 138.198 133.568C133.931 130.923 130.603 127.424 128.214 123.072C125.91 118.635 124.161 113.941 122.966 108.992C121.771 103.957 121.174 98.752 121.174 93.376C121.174 88 121.771 82.8373 122.966 77.888C124.161 72.8533 125.91 68.16 128.214 63.808C130.603 59.456 133.889 55.9573 138.07 53.312C142.337 50.6667 147.243 49.344 152.79 49.344C158.251 49.344 163.073 50.6667 167.254 53.312C171.435 55.9573 174.721 59.456 177.11 63.808C179.499 68.16 181.291 72.8533 182.486 77.888C183.681 82.8373 184.278 88 184.278 93.376C184.278 98.6667 183.681 103.829 182.486 108.864C181.291 113.899 179.499 118.635 177.11 123.072C174.721 127.424 171.435 130.923 167.254 133.568ZM152.79 130.88C157.057 130.88 160.769 129.771 163.926 127.552C167.169 125.333 169.643 122.389 171.35 118.72C173.142 114.965 174.422 110.997 175.19 106.816C176.043 102.549 176.47 98.0693 176.47 93.376C176.47 88.6827 176.043 84.2453 175.19 80.064C174.422 75.7973 173.142 71.8293 171.35 68.16C169.643 64.4053 167.169 61.4613 163.926 59.328C160.769 57.1093 157.057 56 152.79 56C148.438 56 144.641 57.1093 141.398 59.328C138.241 61.4613 135.766 64.4053 133.974 68.16C132.267 71.8293 130.987 75.7973 130.134 80.064C129.281 84.2453 128.854 88.6827 128.854 93.376C128.854 98.0693 129.281 102.549 130.134 106.816C130.987 110.997 132.267 114.965 133.974 118.72C135.766 122.389 138.241 125.333 141.398 127.552C144.641 129.771 148.438 130.88 152.79 130.88Z" fill="#2B2D33"/>
<path d="M80.378 136H71.29L41.466 97.472L11.77 136H2.554L36.986 92.224L4.474 50.624H13.818L41.466 86.848L69.242 50.624H78.458L46.074 92.096L80.378 136Z" fill="#2B2D33"/>
</svg>
